<?xml version="1.0" encoding="UTF-8" standalone="no"?>
<!DOCTYPE svg PUBLIC "-//W3C//DTD SVG 1.1//EN"
 "http://www.w3.org/Graphics/SVG/1.1/DTD/svg11.dtd">
<!-- Generated by graphviz version 2.36.0 (20140111.2315)
 -->
<!-- Title: snakemake_dag Pages: 1 -->
<svg width="187pt" height="692pt"
 viewBox="0.00 0.00 187.00 692.00" xmlns="http://www.w3.org/2000/svg" xmlns:xlink="http://www.w3.org/1999/xlink">
<g id="graph0" class="graph" transform="scale(1 1) rotate(0) translate(4 688)">
<title>snakemake_dag</title>
<polygon fill="white" stroke="none" points="-4,4 -4,-688 183,-688 183,4 -4,4"/>
<!-- 0 -->
<g id="node1" class="node"><title>0</title>
<path fill="none" stroke="#5682d8" stroke-width="2" d="M80,-36C80,-36 50,-36 50,-36 44,-36 38,-30 38,-24 38,-24 38,-12 38,-12 38,-6 44,-0 50,-0 50,-0 80,-0 80,-0 86,-0 92,-6 92,-12 92,-12 92,-24 92,-24 92,-30 86,-36 80,-36"/>
<text text-anchor="middle" x="65" y="-15.5" font-family="sans" font-size="10.00">all</text>
</g>
<!-- 1 -->
<g id="node2" class="node"><title>1</title>
<path fill="none" stroke="#56b1d8" stroke-width="2" d="M118.25,-108C118.25,-108 11.75,-108 11.75,-108 5.75,-108 -0.25,-102 -0.25,-96 -0.25,-96 -0.25,-84 -0.25,-84 -0.25,-78 5.75,-72 11.75,-72 11.75,-72 118.25,-72 118.25,-72 124.25,-72 130.25,-78 130.25,-84 130.25,-84 130.25,-96 130.25,-96 130.25,-102 124.25,-108 118.25,-108"/>
<text text-anchor="middle" x="65" y="-87.5" font-family="sans" font-size="10.00">get_flanking_sequences</text>
</g>
<!-- 1&#45;&gt;0 -->
<g id="edge1" class="edge"><title>1&#45;&gt;0</title>
<path fill="none" stroke="grey" stroke-width="2" d="M65,-71.6966C65,-63.9827 65,-54.7125 65,-46.1124"/>
<polygon fill="grey" stroke="grey" stroke-width="2" points="68.5001,-46.1043 65,-36.1043 61.5001,-46.1044 68.5001,-46.1043"/>
</g>
<!-- 2 -->
<g id="node3" class="node"><title>2</title>
<path fill="none" stroke="#56d89a" stroke-width="2" d="M80,-324C80,-324 50,-324 50,-324 44,-324 38,-318 38,-312 38,-312 38,-300 38,-300 38,-294 44,-288 50,-288 50,-288 80,-288 80,-288 86,-288 92,-294 92,-300 92,-300 92,-312 92,-312 92,-318 86,-324 80,-324"/>
<text text-anchor="middle" x="65" y="-303.5" font-family="sans" font-size="10.00">tabix</text>
</g>
<!-- 2&#45;&gt;1 -->
<g id="edge2" class="edge"><title>2&#45;&gt;1</title>
<path fill="none" stroke="grey" stroke-width="2" d="M65,-287.849C65,-250.832 65,-163.181 65,-118.386"/>
<polygon fill="grey" stroke="grey" stroke-width="2" points="68.5001,-118.232 65,-108.232 61.5001,-118.232 68.5001,-118.232"/>
</g>
<!-- 3 -->
<g id="node4" class="node"><title>3</title>
<path fill="none" stroke="#70d856" stroke-width="2" d="M83.25,-468C83.25,-468 46.75,-468 46.75,-468 40.75,-468 34.75,-462 34.75,-456 34.75,-456 34.75,-444 34.75,-444 34.75,-438 40.75,-432 46.75,-432 46.75,-432 83.25,-432 83.25,-432 89.25,-432 95.25,-438 95.25,-444 95.25,-444 95.25,-456 95.25,-456 95.25,-462 89.25,-468 83.25,-468"/>
<text text-anchor="middle" x="65" y="-447.5" font-family="sans" font-size="10.00">samtools</text>
</g>
<!-- 3&#45;&gt;1 -->
<g id="edge3" class="edge"><title>3&#45;&gt;1</title>
<path fill="none" stroke="grey" stroke-width="2" d="M53.604,-431.899C37.4941,-406.023 10,-354.852 10,-307 10,-307 10,-307 10,-233 10,-190.008 32.193,-144.337 48.3839,-116.738"/>
<polygon fill="grey" stroke="grey" stroke-width="2" points="51.4268,-118.47 53.604,-108.101 45.436,-114.849 51.4268,-118.47"/>
</g>
<!-- 3&#45;&gt;2 -->
<g id="edge5" class="edge"><title>3&#45;&gt;2</title>
<path fill="none" stroke="grey" stroke-width="2" d="M65,-431.871C65,-407.67 65,-363.211 65,-334.393"/>
<polygon fill="grey" stroke="grey" stroke-width="2" points="68.5001,-334.189 65,-324.189 61.5001,-334.189 68.5001,-334.189"/>
</g>
<!-- 10 -->
<g id="node11" class="node"><title>10</title>
<path fill="none" stroke="#d88556" stroke-width="2" d="M144.5,-396C144.5,-396 113.5,-396 113.5,-396 107.5,-396 101.5,-390 101.5,-384 101.5,-384 101.5,-372 101.5,-372 101.5,-366 107.5,-360 113.5,-360 113.5,-360 144.5,-360 144.5,-360 150.5,-360 156.5,-366 156.5,-372 156.5,-372 156.5,-384 156.5,-384 156.5,-390 150.5,-396 144.5,-396"/>
<text text-anchor="middle" x="129" y="-375.5" font-family="sans" font-size="10.00">filter_vcf</text>
</g>
<!-- 3&#45;&gt;10 -->
<g id="edge13" class="edge"><title>3&#45;&gt;10</title>
<path fill="none" stroke="grey" stroke-width="2" d="M80.8202,-431.697C88.5705,-423.22 98.039,-412.864 106.524,-403.583"/>
<polygon fill="grey" stroke="grey" stroke-width="2" points="109.197,-405.846 113.362,-396.104 104.031,-401.123 109.197,-405.846"/>
</g>
<!-- 4 -->
<g id="node5" class="node"><title>4</title>
<path fill="none" stroke="#56d8c9" stroke-width="2" d="M167,-180C167,-180 105,-180 105,-180 99,-180 93,-174 93,-168 93,-168 93,-156 93,-156 93,-150 99,-144 105,-144 105,-144 167,-144 167,-144 173,-144 179,-150 179,-156 179,-156 179,-168 179,-168 179,-174 173,-180 167,-180"/>
<text text-anchor="middle" x="136" y="-159.5" font-family="sans" font-size="10.00">make_snp_set</text>
</g>
<!-- 4&#45;&gt;1 -->
<g id="edge4" class="edge"><title>4&#45;&gt;1</title>
<path fill="none" stroke="grey" stroke-width="2" d="M118.449,-143.697C109.766,-135.135 99.137,-124.656 89.6517,-115.304"/>
<polygon fill="grey" stroke="grey" stroke-width="2" points="91.927,-112.633 82.3487,-108.104 87.0125,-117.617 91.927,-112.633"/>
</g>
<!-- 5 -->
<g id="node6" class="node"><title>5</title>
<path fill="none" stroke="#ced856" stroke-width="2" d="M117.25,-540C117.25,-540 12.75,-540 12.75,-540 6.75,-540 0.75,-534 0.75,-528 0.75,-528 0.75,-516 0.75,-516 0.75,-510 6.75,-504 12.75,-504 12.75,-504 117.25,-504 117.25,-504 123.25,-504 129.25,-510 129.25,-516 129.25,-516 129.25,-528 129.25,-528 129.25,-534 123.25,-540 117.25,-540"/>
<text text-anchor="middle" x="65" y="-519.5" font-family="sans" font-size="10.00">RG_to_sam_file_header</text>
</g>
<!-- 5&#45;&gt;3 -->
<g id="edge6" class="edge"><title>5&#45;&gt;3</title>
<path fill="none" stroke="grey" stroke-width="2" d="M65,-503.697C65,-495.983 65,-486.712 65,-478.112"/>
<polygon fill="grey" stroke="grey" stroke-width="2" points="68.5001,-478.104 65,-468.104 61.5001,-478.104 68.5001,-478.104"/>
</g>
<!-- 6 -->
<g id="node7" class="node"><title>6</title>
<path fill="none" stroke="#d85656" stroke-width="2" d="M162.25,-252C162.25,-252 109.75,-252 109.75,-252 103.75,-252 97.75,-246 97.75,-240 97.75,-240 97.75,-228 97.75,-228 97.75,-222 103.75,-216 109.75,-216 109.75,-216 162.25,-216 162.25,-216 168.25,-216 174.25,-222 174.25,-228 174.25,-228 174.25,-240 174.25,-240 174.25,-246 168.25,-252 162.25,-252"/>
<text text-anchor="middle" x="136" y="-231.5" font-family="sans" font-size="10.00">get_markers</text>
</g>
<!-- 6&#45;&gt;4 -->
<g id="edge7" class="edge"><title>6&#45;&gt;4</title>
<path fill="none" stroke="grey" stroke-width="2" d="M136,-215.697C136,-207.983 136,-198.712 136,-190.112"/>
<polygon fill="grey" stroke="grey" stroke-width="2" points="139.5,-190.104 136,-180.104 132.5,-190.104 139.5,-190.104"/>
</g>
<!-- 7 -->
<g id="node8" class="node"><title>7</title>
<path fill="none" stroke="#9fd856" stroke-width="2" d="M117.25,-612C117.25,-612 74.75,-612 74.75,-612 68.75,-612 62.75,-606 62.75,-600 62.75,-600 62.75,-588 62.75,-588 62.75,-582 68.75,-576 74.75,-576 74.75,-576 117.25,-576 117.25,-576 123.25,-576 129.25,-582 129.25,-588 129.25,-588 129.25,-600 129.25,-600 129.25,-606 123.25,-612 117.25,-612"/>
<text text-anchor="middle" x="96" y="-591.5" font-family="sans" font-size="10.00">Bwa_mem</text>
</g>
<!-- 7&#45;&gt;5 -->
<g id="edge8" class="edge"><title>7&#45;&gt;5</title>
<path fill="none" stroke="grey" stroke-width="2" d="M88.3371,-575.697C84.8083,-567.728 80.5441,-558.1 76.6313,-549.264"/>
<polygon fill="grey" stroke="grey" stroke-width="2" points="79.8243,-547.831 72.5748,-540.104 73.4239,-550.665 79.8243,-547.831"/>
</g>
<!-- 8 -->
<g id="node9" class="node"><title>8</title>
<path fill="none" stroke="#d8b456" stroke-width="2" d="M105.25,-684C105.25,-684 24.75,-684 24.75,-684 18.75,-684 12.75,-678 12.75,-672 12.75,-672 12.75,-660 12.75,-660 12.75,-654 18.75,-648 24.75,-648 24.75,-648 105.25,-648 105.25,-648 111.25,-648 117.25,-654 117.25,-660 117.25,-660 117.25,-672 117.25,-672 117.25,-678 111.25,-684 105.25,-684"/>
<text text-anchor="middle" x="65" y="-663.5" font-family="sans" font-size="10.00">RG_tag_to_header</text>
</g>
<!-- 8&#45;&gt;5 -->
<g id="edge9" class="edge"><title>8&#45;&gt;5</title>
<path fill="none" stroke="grey" stroke-width="2" d="M60.1309,-647.979C57.4358,-637.665 54.3626,-624.189 53,-612 51.2224,-596.099 51.2224,-591.901 53,-576 53.9581,-567.43 55.7618,-558.223 57.6852,-549.926"/>
<polygon fill="grey" stroke="grey" stroke-width="2" points="61.1318,-550.568 60.1309,-540.021 54.3358,-548.89 61.1318,-550.568"/>
</g>
<!-- 8&#45;&gt;7 -->
<g id="edge11" class="edge"><title>8&#45;&gt;7</title>
<path fill="none" stroke="grey" stroke-width="2" d="M72.6629,-647.697C76.1917,-639.728 80.4559,-630.1 84.3687,-621.264"/>
<polygon fill="grey" stroke="grey" stroke-width="2" points="87.5761,-622.665 88.4252,-612.104 81.1757,-619.831 87.5761,-622.665"/>
</g>
<!-- 9 -->
<g id="node10" class="node"><title>9</title>
<path fill="none" stroke="#56d86b" stroke-width="2" d="M152,-324C152,-324 122,-324 122,-324 116,-324 110,-318 110,-312 110,-312 110,-300 110,-300 110,-294 116,-288 122,-288 122,-288 152,-288 152,-288 158,-288 164,-294 164,-300 164,-300 164,-312 164,-312 164,-318 158,-324 152,-324"/>
<text text-anchor="middle" x="137" y="-303.5" font-family="sans" font-size="10.00">bgzip</text>
</g>
<!-- 9&#45;&gt;6 -->
<g id="edge10" class="edge"><title>9&#45;&gt;6</title>
<path fill="none" stroke="grey" stroke-width="2" d="M136.753,-287.697C136.643,-279.983 136.51,-270.712 136.387,-262.112"/>
<polygon fill="grey" stroke="grey" stroke-width="2" points="139.887,-262.053 136.244,-252.104 132.888,-262.153 139.887,-262.053"/>
</g>
<!-- 10&#45;&gt;9 -->
<g id="edge12" class="edge"><title>10&#45;&gt;9</title>
<path fill="none" stroke="grey" stroke-width="2" d="M130.978,-359.697C131.859,-351.983 132.919,-342.712 133.901,-334.112"/>
<polygon fill="grey" stroke="grey" stroke-width="2" points="137.387,-334.437 135.045,-324.104 130.432,-333.642 137.387,-334.437"/>
</g>
</g>
</svg>
