<?xml version="1.0" encoding="UTF-8" standalone="no"?>
<!DOCTYPE svg PUBLIC "-//W3C//DTD SVG 1.1//EN"
 "http://www.w3.org/Graphics/SVG/1.1/DTD/svg11.dtd">
<!-- Generated by graphviz version 2.36.0 (20140111.2315)
 -->
<!-- Title: snakemake_dag Pages: 1 -->
<svg width="138pt" height="404pt"
 viewBox="0.00 0.00 138.00 404.00" xmlns="http://www.w3.org/2000/svg" xmlns:xlink="http://www.w3.org/1999/xlink">
<g id="graph0" class="graph" transform="scale(1 1) rotate(0) translate(4 400)">
<title>snakemake_dag</title>
<polygon fill="white" stroke="none" points="-4,4 -4,-400 134,-400 134,4 -4,4"/>
<!-- 0 -->
<g id="node1" class="node"><title>0</title>
<path fill="none" stroke="#afd856" stroke-width="2" d="M80,-36C80,-36 50,-36 50,-36 44,-36 38,-30 38,-24 38,-24 38,-12 38,-12 38,-6 44,-0 50,-0 50,-0 80,-0 80,-0 86,-0 92,-6 92,-12 92,-12 92,-24 92,-24 92,-30 86,-36 80,-36"/>
<text text-anchor="middle" x="65" y="-15.5" font-family="sans" font-size="10.00">all</text>
</g>
<!-- 1 -->
<g id="node2" class="node"><title>1</title>
<path fill="none" stroke="#59d856" stroke-width="2" d="M118.25,-108C118.25,-108 11.75,-108 11.75,-108 5.75,-108 -0.25,-102 -0.25,-96 -0.25,-96 -0.25,-84 -0.25,-84 -0.25,-78 5.75,-72 11.75,-72 11.75,-72 118.25,-72 118.25,-72 124.25,-72 130.25,-78 130.25,-84 130.25,-84 130.25,-96 130.25,-96 130.25,-102 124.25,-108 118.25,-108"/>
<text text-anchor="middle" x="65" y="-87.5" font-family="sans" font-size="10.00">get_flanking_sequences</text>
</g>
<!-- 1&#45;&gt;0 -->
<g id="edge1" class="edge"><title>1&#45;&gt;0</title>
<path fill="none" stroke="grey" stroke-width="2" d="M65,-71.6966C65,-63.9827 65,-54.7125 65,-46.1124"/>
<polygon fill="grey" stroke="grey" stroke-width="2" points="68.5001,-46.1043 65,-36.1043 61.5001,-46.1044 68.5001,-46.1043"/>
</g>
<!-- 2 -->
<g id="node3" class="node"><title>2</title>
<path fill="none" stroke="#56d8a9" stroke-width="2" d="M96,-180C96,-180 34,-180 34,-180 28,-180 22,-174 22,-168 22,-168 22,-156 22,-156 22,-150 28,-144 34,-144 34,-144 96,-144 96,-144 102,-144 108,-150 108,-156 108,-156 108,-168 108,-168 108,-174 102,-180 96,-180"/>
<text text-anchor="middle" x="65" y="-159.5" font-family="sans" font-size="10.00">make_snp_set</text>
</g>
<!-- 2&#45;&gt;1 -->
<g id="edge2" class="edge"><title>2&#45;&gt;1</title>
<path fill="none" stroke="grey" stroke-width="2" d="M65,-143.697C65,-135.983 65,-126.712 65,-118.112"/>
<polygon fill="grey" stroke="grey" stroke-width="2" points="68.5001,-118.104 65,-108.104 61.5001,-118.104 68.5001,-118.104"/>
</g>
<!-- 3 -->
<g id="node4" class="node"><title>3</title>
<path fill="none" stroke="#d8ac56" stroke-width="2" d="M91.25,-252C91.25,-252 38.75,-252 38.75,-252 32.75,-252 26.75,-246 26.75,-240 26.75,-240 26.75,-228 26.75,-228 26.75,-222 32.75,-216 38.75,-216 38.75,-216 91.25,-216 91.25,-216 97.25,-216 103.25,-222 103.25,-228 103.25,-228 103.25,-240 103.25,-240 103.25,-246 97.25,-252 91.25,-252"/>
<text text-anchor="middle" x="65" y="-231.5" font-family="sans" font-size="10.00">get_markers</text>
</g>
<!-- 3&#45;&gt;2 -->
<g id="edge3" class="edge"><title>3&#45;&gt;2</title>
<path fill="none" stroke="grey" stroke-width="2" d="M65,-215.697C65,-207.983 65,-198.712 65,-190.112"/>
<polygon fill="grey" stroke="grey" stroke-width="2" points="68.5001,-190.104 65,-180.104 61.5001,-190.104 68.5001,-190.104"/>
</g>
<!-- 4 -->
<g id="node5" class="node"><title>4</title>
<path fill="none" stroke="#56a9d8" stroke-width="2" d="M80,-324C80,-324 50,-324 50,-324 44,-324 38,-318 38,-312 38,-312 38,-300 38,-300 38,-294 44,-288 50,-288 50,-288 80,-288 80,-288 86,-288 92,-294 92,-300 92,-300 92,-312 92,-312 92,-318 86,-324 80,-324"/>
<text text-anchor="middle" x="65" y="-303.5" font-family="sans" font-size="10.00">bgzip</text>
</g>
<!-- 4&#45;&gt;3 -->
<g id="edge4" class="edge"><title>4&#45;&gt;3</title>
<path fill="none" stroke="grey" stroke-width="2" d="M65,-287.697C65,-279.983 65,-270.712 65,-262.112"/>
<polygon fill="grey" stroke="grey" stroke-width="2" points="68.5001,-262.104 65,-252.104 61.5001,-262.104 68.5001,-262.104"/>
</g>
<!-- 5 -->
<g id="node6" class="node"><title>5</title>
<path fill="none" stroke="#d85656" stroke-width="2" d="M80.5,-396C80.5,-396 49.5,-396 49.5,-396 43.5,-396 37.5,-390 37.5,-384 37.5,-384 37.5,-372 37.5,-372 37.5,-366 43.5,-360 49.5,-360 49.5,-360 80.5,-360 80.5,-360 86.5,-360 92.5,-366 92.5,-372 92.5,-372 92.5,-384 92.5,-384 92.5,-390 86.5,-396 80.5,-396"/>
<text text-anchor="middle" x="65" y="-375.5" font-family="sans" font-size="10.00">filter_vcf</text>
</g>
<!-- 5&#45;&gt;4 -->
<g id="edge5" class="edge"><title>5&#45;&gt;4</title>
<path fill="none" stroke="grey" stroke-width="2" d="M65,-359.697C65,-351.983 65,-342.712 65,-334.112"/>
<polygon fill="grey" stroke="grey" stroke-width="2" points="68.5001,-334.104 65,-324.104 61.5001,-334.104 68.5001,-334.104"/>
</g>
</g>
</svg>
